<svg width="987" height="1177" viewBox="0 0 987 1177" fill="none" xmlns="http://www.w3.org/2000/svg">
<path d="M522.525 36.049C658.496 9.19439 804.264 -23.9232 906.358 27.1666C1008.28 79.416 1065.7 217.527 1132.09 346.886C1198.31 477.405 1274.01 599.836 1226.35 687.013C1178.69 774.189 1009 825.121 896.012 868.965C784.184 912.98 728.558 949.242 663.956 994.257C598.69 1039.77 523.12 1095.02 408.985 1134.55C294.681 1175.24 141.643 1201.37 65.2658 1140.43C-11.7759 1079.98 -12.1565 932.463 23.1633 816.236C58.9782 700.674 130.663 615.242 155.534 501.629C180.901 388.681 159.129 245.727 211.245 164.534C262.202 83.1706 387.049 63.5685 522.525 36.049Z" fill="#FE5E49"/>
</svg>
